<svg width="53" height="46" xmlns="http://www.w3.org/2000/svg">
 <title>logo-shield</title>

 <g>
  <title>background</title>
  <rect fill="none" id="canvas_background" height="602" width="802" y="-1" x="-1"/>
 </g>
 <g>
  <title>Layer 1</title>
  <g fill-rule="evenodd" fill="none" id="Page-1">
   <g fill-rule="nonzero" fill="currentColor" id="logo-shield">
    <path fill="#0a5923" id="Shape" d="m42.85,19.3c0,0 0,0 0,0c0,-0.1 0,-0.2 0,-0.3c0,0 0,-0.1 0,-0.1c0,-0.1 0,-0.2 0,-0.2c0,0 0,-0.1 0,-0.1c0,-0.1 0,-0.2 0,-0.2c0,0 0,-0.1 0,-0.1c0,-0.1 0,-0.2 0,-0.2c0,0 0,-0.1 0,-0.1c0,-0.1 0,-0.2 0,-0.2c0,0 0,-0.1 0,-0.1c0,-0.1 0,-0.2 0,-0.3c0,0 0,-0.1 0,-0.1c0,-0.1 0,-0.2 0,-0.2c0,0 0,-0.1 0,-0.1c0,-0.1 0,-0.2 0,-0.3c0,0 0,0 0,-0.1c0,-0.1 0,-0.2 0,-0.3c0,0 0,0 0,-0.1c0,-0.1 0,-0.2 0,-0.3c0,0 0,0 0,0c0,-0.1 0,-0.2 0,-0.3c0,0 0,0 0,0c0,-0.1 0,-0.2 0,-0.3c0,0 0,0 0,0c0,-0.1 0,-0.2 0,-0.3c0,0 0,0 0,0c-0.3,-5.5 -1.1,-10.4 -1.1,-10.4c0,0 -4.2,1.5 -7.8,1.1c-2.3,-0.2 -7,-1.6 -7.2,-1.7c0,0 -0.1,0 -0.1,0c0,0 0,0 0,0c0,0 -0.4,0 -0.8,0.1c-1.2,0.4 -4,1.2 -6.3,1.6c0,0 0,0 0,0c-0.8,0.1 -1.7,0.1 -2.6,0.1c0,0 0,0 0,0c0,0 0,0 0,0c-1.5,-0.1 -3.1,-0.4 -4.2,-0.6c0,0 0,0 0,0c0,0 0,0 0,0c-0.8,-0.2 -1.3,-0.3 -1.3,-0.3c0,0 -1.3,7.8 -1.3,14.7c0,4.9 2.9,9.2 6.2,12.9c3,-1.2 7.1,-1.8 10.2,-1.5c3.1,-0.3 7.3,0.3 10.2,1.5c3.3,-3.7 6.1,-8 6.1,-12.9c0,-0.1 0,-0.2 0,-0.3z"/>
    <path fill="#0a5923" id="Shape" d="m49.15,33.6c1.8,-1.3 2.9,-4 3,-5.1c-3.4,1.6 -7.1,2.2 -10.3,2.2c2.3,-3.5 4,-7.4 4,-11.5c0,-8.2 -1.4,-17.7 -1.4,-17.7c0,0 -6.7,1.3 -10.9,1c-4.4,-0.9 -7.1,-2 -7.1,-2c0,0 -4.4,1.5 -8,2.2c0,0 -0.1,0 -0.1,0c-3.7,0.5 -10,-0.8 -10,-0.8c0,0 -1.4,9 -1.4,17.3c0,4.1 1.6,8 4,11.5c-3.2,0 -6.8,-0.6 -10.2,-2.2c0.1,1.1 1.2,3.8 3,5.1c-0.9,0.2 -2.6,1.5 -3.4,1.7c1.8,2.3 5.1,2.7 9,2.1l0.7,2.9c1.2,0 2.3,0 3.5,-0.2c1.4,-0.2 2.7,-0.8 4,-1.4c0.1,0 0.1,-0.1 0.2,-0.1c4.5,4.2 8.7,6.9 8.7,6.9c0,0 4.2,-2.6 8.7,-6.9c0.1,0 0.2,0.1 0.3,0.1c1.3,0.5 2.6,1.2 4,1.4c1.2,0.1 2.3,0.2 3.5,0.2l0.7,-2.9c3.9,0.5 7.3,0.2 9,-2.1c-0.9,-0.2 -2.6,-1.5 -3.5,-1.7zm-22.8,9.7c0,0 0,0 0,0c-0.1,-0.1 -0.1,-0.1 -0.2,-0.1c-0.8,-0.5 -3.6,-2.4 -6.7,-5.2c0,0 0,0 0,0c0.6,-0.2 1.2,-0.4 1.8,-0.5c0,0 0,0 0,0c2.4,2 4.4,3.3 5,3.7c0.1,0 0.1,0.1 0.1,0.1c0,0 0,0 0,0c0,0 2.3,-1.4 5.2,-3.8c0.6,0.1 1.1,0.3 1.7,0.5c-3.6,3.3 -6.9,5.3 -6.9,5.3zm18.2,-9.4c0,0 0,0 0,0c-0.1,0.1 -0.1,0.1 -0.1,0.1c-0.2,0.1 -0.4,0.1 -0.8,0.2c-0.4,0.1 -1,0.1 -1.6,0c0,0 0,0 0,0c0,0 -0.1,0 -0.1,0c0,0 -0.1,0 -0.1,0c-0.1,0 -0.1,0 -0.2,0c-0.7,-0.1 -1.4,-0.2 -2.1,-0.3c0,0 0,0 0,0c-0.7,-0.1 -1.3,-0.3 -1.8,-0.4c-0.4,-0.1 -0.7,-0.2 -0.9,-0.3c-0.1,-0.1 -0.3,-0.1 -0.4,-0.2c-2.9,-1.1 -7,-1.7 -10,-1.4c-3,-0.3 -7,0.3 -10,1.4c0,0 0,0 0,0c-0.2,0.1 -0.3,0.1 -0.5,0.2c-0.2,0.1 -0.6,0.2 -1,0.3c0,0 0,0 0,0c-0.5,0.1 -1.1,0.3 -1.8,0.4c0,0 0,0 0,0c-1.5,0.3 -3.2,0.5 -4.2,0.3c-0.2,0 -0.4,-0.1 -0.5,-0.1c0,0 -0.1,0 -0.1,-0.1c0,0 0,0 0,0c0,-0.1 0,-0.2 0,-0.3l0,0c0,0 0,0 0,0c0.3,-0.6 2.5,-1.2 3.5,-1.5c0,0 0,0 0,0c0,0 0,0 0,0c0.2,0.3 0.4,0.5 0.6,0.8c0.1,0.1 0.2,0.2 0.2,0.3c0.1,0.1 0.1,0.1 0.2,0.2c0.6,-0.1 1.2,-0.2 1.8,-0.4c-3.4,-4 -6.1,-8.6 -6.1,-13.7c0,-7.7 1.4,-16 1.4,-16c0,0 0,0 0,0l0,0c0,0 0,0 0,0c0,0 0,0 0,0c0,0 0,0 0,0c0,0 0,0 0,0l0,0c0,0 4.8,1.1 8.4,0.8c0.6,-0.1 1.3,-0.2 2,-0.3c3,-0.7 6,-1.7 6,-1.7c0,0 0.1,0 0.2,0.1c0.4,0.2 1.4,0.6 2.9,1c1.1,0.3 2.5,0.5 4.1,0.7c2.4,0.2 5.8,-0.2 7.7,-0.6c0,0 0,0 0,0c0.8,-0.2 1.4,-0.3 1.4,-0.4c0,0 0,0 0,0c0,0 0,0 0,0c0.1,0 0.1,0 0.1,0l0,0c0,0 0,0 0,0l-0.1,0.1c0.1,0.9 1.3,8.6 1.4,15.5c0,0.2 0,0.4 0,0.7c0,5.1 -2.7,9.7 -6.1,13.7c0.5,0.1 1.1,0.3 1.8,0.4c0.1,-0.1 0,0 0.1,-0.1c0.1,-0.1 0.2,-0.2 0.3,-0.3c0.2,-0.3 0.4,-0.5 0.6,-0.8c0,0 0,0 0,0c0,0 0,0 0,0c1.3,0.2 4.1,0.9 3.8,1.7z"/>
   </g>
  </g>
 </g>
</svg>